<?xml version="1.0" encoding="UTF-8"?>
<svg width="102px" height="88px" viewBox="0 0 102 88" version="1.1" xmlns="http://www.w3.org/2000/svg" xmlns:xlink="http://www.w3.org/1999/xlink">
    <!-- Generator: Sketch 50.2 (55047) - http://www.bohemiancoding.com/sketch -->
    <title>niet vol</title>
    <desc>Created with Sketch.</desc>
    <defs>
        <polygon id="path-1" points="0.000121165804 0.972 100.007 0.972 100.007 88.00055 0.000121165804 88.00055"></polygon>
    </defs>
    <g id="niet-vol" stroke="none" stroke-width="1" fill="none" fill-rule="evenodd">
        <g id="Group-8" transform="translate(2.000000, -1.000000)">
            <mask id="mask-2" fill="white">
                <use xlink:href="#path-1"></use>
            </mask>
            <g id="Clip-7"></g>
            <path d="M11.9095,12.9428 C16.3585,8.4898 22.3975,5.9898 28.6945,6.0018 C34.9685,5.9818 40.9875,8.4738 45.4135,12.9198 L46.4135,13.9198 L50.0035,17.4898 L54.5425,12.9508 C58.9835,8.4978 65.0225,6.0058 71.3125,6.0288 L71.3245,6.0018 C77.6015,6.0058 83.6215,8.5058 88.0545,12.9508 C92.4875,17.3918 94.9725,23.4158 94.9645,29.6928 C94.9525,35.9738 92.4485,41.9898 88.0035,46.4198 L87.0035,47.4198 L61.1945,73.2788 L56.5935,77.8878 L52.5345,81.9468 L52.5345,81.9508 C51.1205,83.3448 48.8475,83.3448 47.4325,81.9508 L45.0035,79.4898 L44.8045,79.2788 L38.8045,73.2788 L37.3235,71.8178 L13.0035,47.4898 L12.0035,46.4898 C7.5305,42.0598 5.0035,36.0328 4.9875,29.7358 C4.9685,23.4388 7.4605,17.3958 11.9095,12.9428 Z M9.3935,50.9508 L35.2415,76.8088 L41.2415,82.8088 L41.3435,82.9188 L43.9015,85.4888 C47.2685,88.8378 52.7065,88.8378 56.0735,85.4888 L58.4525,83.1178 L64.7335,76.8378 L90.5545,50.9888 L91.5545,49.9888 C96.9565,44.6178 99.9995,37.3168 100.0075,29.6998 C100.0185,22.0788 96.9955,14.7698 91.6085,9.3838 C86.2225,3.9988 78.9135,0.9778 71.2925,0.9898 L71.3125,1.0288 C63.7035,1.0048 56.3945,4.0128 51.0035,9.3878 L50.0035,10.3878 L49.0035,9.3878 C41.7575,2.1338 31.1945,-0.7022 21.2885,1.9468 C11.3825,4.5908 3.6435,12.3218 0.9835,22.2228 C-1.6765,32.1258 1.1475,42.6968 8.3935,49.9508 L9.3935,50.9508 Z" id="Fill-6" fill="#003083" mask="url(#mask-2)"></path>
        </g>
    </g>
</svg>